<svg xmlns="http://www.w3.org/2000/svg" xmlns:xlink="http://www.w3.org/1999/xlink" version="1.1" x="0px" y="0px" viewBox="0 0 100 125" style="enable-background:new 0 0 100 100;" xml:space="preserve"><g><path d="M91.2,47.9c-2.8,0-4.2,0.6-5.6,1.2c-1.2,0.5-2.4,1.1-4.8,1.1s-3.6-0.5-4.8-1.1c-1.4-0.6-2.8-1.2-5.6-1.2   c-2.8,0-4.2,0.6-5.6,1.2c-1.2,0.5-2.4,1.1-4.8,1.1c-2.4,0-3.6-0.5-4.8-1.1c-1.4-0.6-2.8-1.2-5.6-1.2c-2.8,0-4.2,0.6-5.6,1.2   c-1.2,0.5-2.4,1.1-4.8,1.1c-2.4,0-3.6-0.5-4.8-1.1c-1.4-0.6-2.8-1.2-5.6-1.2c-2.8,0-4.2,0.6-5.6,1.2c-1.2,0.5-2.4,1.1-4.8,1.1   c-2.4,0-3.6-0.5-4.8-1.1c-1.4-0.6-2.8-1.2-5.6-1.2c-0.6,0-1,0.4-1,1s0.4,1,1,1c2.4,0,3.6,0.5,4.8,1.1c1.4,0.6,2.8,1.2,5.6,1.2   c2.8,0,4.2-0.6,5.6-1.2c1.2-0.5,2.4-1.1,4.8-1.1c2.4,0,3.6,0.5,4.8,1.1c1.4,0.6,2.8,1.2,5.6,1.2c2.8,0,4.2-0.6,5.6-1.2   c1.2-0.5,2.4-1.1,4.8-1.1c2.4,0,3.6,0.5,4.8,1.1c1.4,0.6,2.8,1.2,5.6,1.2c2.8,0,4.2-0.6,5.6-1.2c1.2-0.5,2.4-1.1,4.8-1.1   c2.4,0,3.6,0.5,4.8,1.1c1.4,0.6,2.8,1.2,5.6,1.2s4.2-0.6,5.6-1.2c1.2-0.5,2.4-1.1,4.8-1.1c0.6,0,1-0.4,1-1S91.8,47.9,91.2,47.9z"/></g><text x="0" y="115" fill="#000000" font-size="5px" font-weight="bold" font-family="'Helvetica Neue', Helvetica, Arial-Unicode, Arial, Sans-serif">Created by Made by Made</text><text x="0" y="120" fill="#000000" font-size="5px" font-weight="bold" font-family="'Helvetica Neue', Helvetica, Arial-Unicode, Arial, Sans-serif">from the Noun Project</text></svg>
